<?xml version="1.0" encoding="UTF-8" standalone="no"?>
<!DOCTYPE svg PUBLIC "-//W3C//DTD SVG 1.1//EN" "http://www.w3.org/Graphics/SVG/1.1/DTD/svg11.dtd">
<svg width="100%" height="100%" viewBox="0 0 504 504" version="1.1" xmlns="http://www.w3.org/2000/svg" xmlns:xlink="http://www.w3.org/1999/xlink" xml:space="preserve" xmlns:serif="http://www.serif.com/" style="fill-rule:evenodd;clip-rule:evenodd;stroke-linecap:round;stroke-linejoin:round;stroke-miterlimit:10;">
    <g transform="matrix(1,0,0,1,-12.0946,30.8254)">
        <g id="surface61">
            <g>
                <clipPath id="_clip1">
                    <rect x="21.121" y="21.121" width="462.762" height="462.762"/>
                </clipPath>
                <g clip-path="url(#_clip1)">
                    <path d="M109.48,339.453L113.043,337.984L116.605,336.496L120.172,334.98L123.734,333.445L127.297,331.887L130.859,330.301L134.422,328.695L137.984,327.059L141.547,325.402L145.109,323.715L148.676,322.004L152.238,320.266L155.801,318.496L159.363,316.699L162.926,314.871L166.488,313.012L170.051,311.121L173.613,309.199L177.18,307.242L180.742,305.25L184.305,303.223L187.867,301.156L191.43,299.051L194.992,296.906L198.555,294.723L202.117,292.496L205.68,290.227L209.246,287.91L212.809,285.547L216.371,283.137L219.934,280.676L223.496,278.164L227.059,275.602L230.621,272.98L234.184,270.305L237.75,267.57L241.313,264.773L244.875,261.914L248.438,258.992L252,256L255.563,252.941L259.125,249.813L262.688,246.605L266.25,243.328L269.816,239.969L273.379,236.531L276.941,233.008L280.504,229.398L284.066,225.703L287.629,221.914L291.191,218.031L294.754,214.051L298.32,209.969L301.883,205.785L305.445,201.492L309.008,197.09L312.57,192.578L316.133,187.945L319.695,183.195L323.258,178.324L326.82,173.32L330.387,168.188L333.949,162.922L337.512,157.516L341.074,151.969L344.637,146.273L348.199,140.426L351.762,134.426L355.324,128.266L358.891,121.941L362.453,115.449L366.016,108.785L369.578,101.941L373.141,94.914L376.703,87.699L380.266,80.293L383.828,72.691L387.395,64.883L390.957,56.867L394.52,48.637L398.082,40.188L401.645,31.512L405.207,22.609L408.77,13.465L412.332,4.078L413.844,0" style="fill:none;fill-rule:nonzero;stroke:rgb(89,98,166);stroke-width:1.5px;"/>
                    <g transform="matrix(1,-0,-0,1,12.0946,-30.8254)">
                        <path d="M443.558,464.075L453.683,467.45L443.558,470.825L443.558,464.075Z" style="fill-rule:nonzero;"/>
                        <path d="M73.632,467.45L445.583,467.45" style="fill:none;fill-rule:nonzero;stroke:black;stroke-width:0.75px;"/>
                    </g>
                    <g transform="matrix(1,-0,-0,1,12.0946,-30.8254)">
                        <path d="M94.011,79.173L97.386,69.048L100.761,79.173L94.011,79.173Z" style="fill-rule:nonzero;"/>
                        <path d="M97.386,477.169L97.386,77.148" style="fill:none;fill-rule:nonzero;stroke:black;stroke-width:0.75px;"/>
                    </g>
                    <path d="M109.48,339.453L228.246,290.867" style="fill:none;fill-rule:nonzero;stroke:rgb(165,76,76);stroke-width:0.55px;stroke-dasharray:2.75,2.75,0,0,0,0;"/>
                    <path d="M109.48,339.453L228.246,260.504" style="fill:none;fill-rule:nonzero;stroke:rgb(165,76,76);stroke-width:0.55px;stroke-dasharray:2.75,2.75,0,0,0,0;"/>
                    <path d="M109.48,339.453L347.012,151.184" style="fill:none;fill-rule:nonzero;stroke:rgb(165,76,76);stroke-width:0.55px;stroke-dasharray:2.75,2.75,0,0,0,0;"/>
                    <path d="M228.246,436.625L228.246,260.504" style="fill:none;fill-rule:nonzero;stroke:rgb(127,127,127);stroke-width:0.6px;stroke-dasharray:12,3,1.2,3,0,0;"/>
                    <path d="M347.012,436.625L347.012,204.129L347.014,103.357" style="fill:none;fill-rule:nonzero;stroke:rgb(127,127,127);stroke-width:0.6px;stroke-dasharray:12,3,1.2,3,0,0;"/>
                    <path d="M109.48,290.867L228.246,290.867" style="fill:none;fill-rule:nonzero;stroke:rgb(127,127,127);stroke-width:0.6px;stroke-dasharray:12,3,1.2,3,0,0;"/>
                    <path d="M109.48,260.504L228.246,260.504" style="fill:none;fill-rule:nonzero;stroke:rgb(127,127,127);stroke-width:0.6px;stroke-dasharray:12,3,1.2,3,0,0;"/>
                    <path d="M109.48,151.184L347.012,151.184" style="fill:none;fill-rule:nonzero;stroke:rgb(127,127,127);stroke-width:0.6px;stroke-dasharray:12,3,1.2,3,0,0;"/>
                    <g transform="matrix(1,-0,-0,1,12.0946,-30.8254)">
                        <path d="M145.037,346.768L156.769,345.986L147.853,353.65L145.037,346.768Z" style="fill:rgb(205,0,0);fill-rule:nonzero;"/>
                        <path d="M97.386,370.279C97.386,370.279 132.192,356.04 148.51,349.364" style="fill:none;fill-rule:nonzero;stroke:rgb(205,0,0);stroke-width:1.5px;"/>
                    </g>
                    <g transform="matrix(1,-0,-0,1,12.0946,-30.8254)">
                        <path d="M264.187,285.298L275.534,282.22L268.303,291.491L264.187,285.298Z" style="fill:rgb(205,0,0);fill-rule:nonzero;"/>
                        <path d="M216.151,321.693C216.151,321.693 252.169,297.751 268.103,287.16" style="fill:none;fill-rule:nonzero;stroke:rgb(205,0,0);stroke-width:1.5px;"/>
                    </g>
                    <g transform="matrix(1,-0,-0,1,12.0946,-30.8254)">
                        <path d="M264.484,248.274L275.534,244.259L269.103,254.101L264.484,248.274Z" style="fill:rgb(205,0,0);fill-rule:nonzero;"/>
                        <path d="M216.151,291.329C216.151,291.329 252.841,262.247 268.541,249.802" style="fill:none;fill-rule:nonzero;stroke:rgb(205,0,0);stroke-width:1.5px;"/>
                    </g>
                    <g transform="matrix(1,-0,-0,1,12.0946,-30.8254)">
                        <path d="M385.258,93.872L394.3,86.357L391.576,97.794L385.258,93.872Z" style="fill:rgb(205,0,0);fill-rule:nonzero;"/>
                        <path d="M334.917,182.009C334.917,182.009 375.551,116.557 389.593,93.938" style="fill:none;fill-rule:nonzero;stroke:rgb(205,0,0);stroke-width:1.5px;"/>
                    </g>
                    <g transform="matrix(1.00919,-0.00754092,-0.00754092,1.00618,13.9915,-32.3812)">
                        <g transform="matrix(0.990945,0.0074267,0.0074267,0.993909,-1.86811,1.5322)">
                            <path d="M324.007,173.214L334.919,168.835L328.817,178.885L324.007,173.214Z" style="fill:rgb(86,165,76);"/>
                            <path d="M97.388,370.277C97.388,370.277 289.276,207.543 328.114,174.606" style="fill:none;stroke:rgb(86,165,76);stroke-width:1.5px;stroke-miterlimit:1.5;"/>
                        </g>
                    </g>
                    <path d="M113.082,339.453C113.082,344.254 105.883,344.254 105.883,339.453C105.883,334.656 113.082,334.656 113.082,339.453" style="fill:rgb(205,0,0);fill-rule:nonzero;"/>
                    <path d="M231.848,290.867C231.848,295.668 224.648,295.668 224.648,290.867C224.648,286.07 231.848,286.07 231.848,290.867" style="fill:rgb(205,0,0);fill-rule:nonzero;"/>
                    <path d="M231.848,260.504C231.848,265.301 224.648,265.301 224.648,260.504C224.648,255.703 231.848,255.703 231.848,260.504" style="fill:rgb(205,0,0);fill-rule:nonzero;"/>
                    <path d="M350.613,151.184C350.613,155.984 343.414,155.984 343.414,151.184C343.414,146.383 350.613,146.383 350.613,151.184" style="fill:rgb(205,0,0);fill-rule:nonzero;"/>
                    <g transform="matrix(1.57188,0,0,1.57188,-52.5059,-190.27)">
                        <g transform="matrix(12,0,0,12,88.6524,337.882)">
                            <path d="M0.007,-0L0.197,-0.27L0.021,-0.519L0.131,-0.519L0.211,-0.397C0.226,-0.374 0.238,-0.354 0.247,-0.339C0.261,-0.36 0.275,-0.379 0.287,-0.396L0.374,-0.519L0.479,-0.519L0.3,-0.274L0.493,-0L0.385,-0L0.278,-0.161L0.25,-0.205L0.114,-0L0.007,-0Z" style="fill-rule:nonzero;"/>
                        </g>
                        <g transform="matrix(6,0,0,6,94.6524,337.882)">
                            <path d="M0.066,-0L0.066,-0.519L0.145,-0.519L0.145,-0.445C0.183,-0.502 0.238,-0.53 0.31,-0.53C0.341,-0.53 0.37,-0.525 0.396,-0.513C0.422,-0.502 0.442,-0.487 0.455,-0.469C0.468,-0.451 0.477,-0.429 0.482,-0.404C0.486,-0.388 0.487,-0.36 0.487,-0.319L0.487,-0L0.399,-0L0.399,-0.315C0.399,-0.351 0.396,-0.378 0.389,-0.396C0.382,-0.413 0.37,-0.428 0.353,-0.438C0.335,-0.449 0.315,-0.454 0.292,-0.454C0.254,-0.454 0.222,-0.442 0.195,-0.418C0.167,-0.395 0.154,-0.35 0.154,-0.283L0.154,-0L0.066,-0Z" style="fill-rule:nonzero;"/>
                        </g>
                    </g>
                    <g transform="matrix(1.57188,0,0,1.57188,-50.2739,-240.406)">
                        <g transform="matrix(11.4512,0,0,11.4512,88.6524,337.882)">
                            <path d="M0.066,-0L0.066,-0.716L0.154,-0.716L0.154,-0.308L0.362,-0.519L0.476,-0.519L0.278,-0.326L0.496,-0L0.388,-0L0.216,-0.265L0.154,-0.206L0.154,-0L0.066,-0Z" style="fill-rule:nonzero;"/>
                        </g>
                        <g transform="matrix(6.99798,0,0,6.99798,94.3781,337.882)">
                            <path d="M0.373,-0L0.285,-0L0.285,-0.56C0.264,-0.54 0.236,-0.52 0.201,-0.5C0.167,-0.479 0.136,-0.464 0.109,-0.454L0.109,-0.539C0.158,-0.562 0.201,-0.59 0.238,-0.623C0.275,-0.656 0.301,-0.688 0.316,-0.719L0.373,-0.719L0.373,-0Z" style="fill-rule:nonzero;"/>
                        </g>
                    </g>
                    <g transform="matrix(1.57188,0,0,1.57188,-98.5601,-235.384)">
                        <g transform="matrix(11.4512,0,0,11.4512,88.6524,337.882)">
                            <path d="M0.007,-0L0.197,-0.27L0.021,-0.519L0.131,-0.519L0.211,-0.397C0.226,-0.374 0.238,-0.354 0.247,-0.339C0.261,-0.36 0.275,-0.379 0.287,-0.396L0.374,-0.519L0.479,-0.519L0.3,-0.274L0.493,-0L0.385,-0L0.278,-0.161L0.25,-0.205L0.114,-0L0.007,-0Z" style="fill-rule:nonzero;"/>
                        </g>
                        <g transform="matrix(6,0,0,6,94.3781,337.882)">
                            <path d="M0.066,-0L0.066,-0.519L0.145,-0.519L0.145,-0.445C0.183,-0.502 0.238,-0.53 0.31,-0.53C0.341,-0.53 0.37,-0.525 0.396,-0.513C0.422,-0.502 0.442,-0.487 0.455,-0.469C0.468,-0.451 0.477,-0.429 0.482,-0.404C0.486,-0.388 0.487,-0.36 0.487,-0.319L0.487,-0L0.399,-0L0.399,-0.315C0.399,-0.351 0.396,-0.378 0.389,-0.396C0.382,-0.413 0.37,-0.428 0.353,-0.438C0.335,-0.449 0.315,-0.454 0.292,-0.454C0.254,-0.454 0.222,-0.442 0.195,-0.418C0.167,-0.395 0.154,-0.35 0.154,-0.283L0.154,-0L0.066,-0Z" style="fill-rule:nonzero;"/>
                        </g>
                        <g transform="matrix(6.99798,0,0,6.99798,99.6592,337.882)">
                            <path d="M0.25,-0.116L0.25,-0.312L0.056,-0.312L0.056,-0.394L0.25,-0.394L0.25,-0.589L0.333,-0.589L0.333,-0.394L0.528,-0.394L0.528,-0.312L0.333,-0.312L0.333,-0.116L0.25,-0.116Z" style="fill-rule:nonzero;"/>
                        </g>
                        <g transform="matrix(8.90652,0,0,8.90652,105.69,337.882)">
                            <path d="M0.402,-0L0.402,-0.065C0.369,-0.014 0.321,0.012 0.257,0.012C0.216,0.012 0.178,0 0.143,-0.022C0.109,-0.045 0.082,-0.077 0.063,-0.118C0.044,-0.159 0.034,-0.206 0.034,-0.259C0.034,-0.311 0.043,-0.358 0.06,-0.4C0.077,-0.442 0.103,-0.474 0.138,-0.497C0.172,-0.519 0.211,-0.53 0.253,-0.53C0.285,-0.53 0.313,-0.524 0.337,-0.51C0.361,-0.497 0.381,-0.48 0.396,-0.459L0.396,-0.716L0.484,-0.716L0.484,-0L0.402,-0ZM0.125,-0.259C0.125,-0.192 0.139,-0.143 0.167,-0.11C0.194,-0.077 0.228,-0.061 0.266,-0.061C0.304,-0.061 0.337,-0.076 0.364,-0.108C0.39,-0.139 0.404,-0.187 0.404,-0.251C0.404,-0.322 0.39,-0.375 0.363,-0.408C0.335,-0.441 0.302,-0.458 0.262,-0.458C0.223,-0.458 0.19,-0.442 0.164,-0.41C0.138,-0.378 0.125,-0.327 0.125,-0.259Z" style="fill-rule:nonzero;"/>
                        </g>
                        <g transform="matrix(8.90652,0,0,8.90652,110.644,337.882)">
                            <path d="M0.258,-0.079L0.271,-0.001C0.246,0.004 0.224,0.007 0.204,0.007C0.172,0.007 0.147,0.002 0.13,-0.008C0.112,-0.018 0.1,-0.032 0.093,-0.048C0.086,-0.065 0.082,-0.099 0.082,-0.152L0.082,-0.45L0.018,-0.45L0.018,-0.519L0.082,-0.519L0.082,-0.647L0.169,-0.7L0.169,-0.519L0.258,-0.519L0.258,-0.45L0.169,-0.45L0.169,-0.147C0.169,-0.122 0.171,-0.106 0.174,-0.099C0.177,-0.091 0.182,-0.086 0.189,-0.082C0.196,-0.077 0.206,-0.075 0.219,-0.075C0.229,-0.075 0.242,-0.076 0.258,-0.079Z" style="fill-rule:nonzero;"/>
                        </g>
                    </g>
                    <g transform="matrix(1.57188,0,0,1.57188,-98.5601,-235.384)">
                        <g transform="matrix(11.4512,0,0,11.4512,88.6524,337.882)">
                            <path d="M0.007,-0L0.197,-0.27L0.021,-0.519L0.131,-0.519L0.211,-0.397C0.226,-0.374 0.238,-0.354 0.247,-0.339C0.261,-0.36 0.275,-0.379 0.287,-0.396L0.374,-0.519L0.479,-0.519L0.3,-0.274L0.493,-0L0.385,-0L0.278,-0.161L0.25,-0.205L0.114,-0L0.007,-0Z" style="fill-rule:nonzero;"/>
                        </g>
                        <g transform="matrix(6,0,0,6,94.3781,337.882)">
                            <path d="M0.066,-0L0.066,-0.519L0.145,-0.519L0.145,-0.445C0.183,-0.502 0.238,-0.53 0.31,-0.53C0.341,-0.53 0.37,-0.525 0.396,-0.513C0.422,-0.502 0.442,-0.487 0.455,-0.469C0.468,-0.451 0.477,-0.429 0.482,-0.404C0.486,-0.388 0.487,-0.36 0.487,-0.319L0.487,-0L0.399,-0L0.399,-0.315C0.399,-0.351 0.396,-0.378 0.389,-0.396C0.382,-0.413 0.37,-0.428 0.353,-0.438C0.335,-0.449 0.315,-0.454 0.292,-0.454C0.254,-0.454 0.222,-0.442 0.195,-0.418C0.167,-0.395 0.154,-0.35 0.154,-0.283L0.154,-0L0.066,-0Z" style="fill-rule:nonzero;"/>
                        </g>
                        <g transform="matrix(6.99798,0,0,6.99798,99.6592,337.882)">
                            <path d="M0.25,-0.116L0.25,-0.312L0.056,-0.312L0.056,-0.394L0.25,-0.394L0.25,-0.589L0.333,-0.589L0.333,-0.394L0.528,-0.394L0.528,-0.312L0.333,-0.312L0.333,-0.116L0.25,-0.116Z" style="fill-rule:nonzero;"/>
                        </g>
                        <g transform="matrix(8.90652,0,0,8.90652,105.69,337.882)">
                            <path d="M0.402,-0L0.402,-0.065C0.369,-0.014 0.321,0.012 0.257,0.012C0.216,0.012 0.178,0 0.143,-0.022C0.109,-0.045 0.082,-0.077 0.063,-0.118C0.044,-0.159 0.034,-0.206 0.034,-0.259C0.034,-0.311 0.043,-0.358 0.06,-0.4C0.077,-0.442 0.103,-0.474 0.138,-0.497C0.172,-0.519 0.211,-0.53 0.253,-0.53C0.285,-0.53 0.313,-0.524 0.337,-0.51C0.361,-0.497 0.381,-0.48 0.396,-0.459L0.396,-0.716L0.484,-0.716L0.484,-0L0.402,-0ZM0.125,-0.259C0.125,-0.192 0.139,-0.143 0.167,-0.11C0.194,-0.077 0.228,-0.061 0.266,-0.061C0.304,-0.061 0.337,-0.076 0.364,-0.108C0.39,-0.139 0.404,-0.187 0.404,-0.251C0.404,-0.322 0.39,-0.375 0.363,-0.408C0.335,-0.441 0.302,-0.458 0.262,-0.458C0.223,-0.458 0.19,-0.442 0.164,-0.41C0.138,-0.378 0.125,-0.327 0.125,-0.259Z" style="fill-rule:nonzero;"/>
                        </g>
                        <g transform="matrix(8.90652,0,0,8.90652,110.644,337.882)">
                            <path d="M0.258,-0.079L0.271,-0.001C0.246,0.004 0.224,0.007 0.204,0.007C0.172,0.007 0.147,0.002 0.13,-0.008C0.112,-0.018 0.1,-0.032 0.093,-0.048C0.086,-0.065 0.082,-0.099 0.082,-0.152L0.082,-0.45L0.018,-0.45L0.018,-0.519L0.082,-0.519L0.082,-0.647L0.169,-0.7L0.169,-0.519L0.258,-0.519L0.258,-0.45L0.169,-0.45L0.169,-0.147C0.169,-0.122 0.171,-0.106 0.174,-0.099C0.177,-0.091 0.182,-0.086 0.189,-0.082C0.196,-0.077 0.206,-0.075 0.219,-0.075C0.229,-0.075 0.242,-0.076 0.258,-0.079Z" style="fill-rule:nonzero;"/>
                        </g>
                    </g>
                    <g transform="matrix(1.57188,0,0,1.57188,-35.0173,-70.6012)">
                        <g transform="matrix(11.4512,0,0,11.4512,88.6524,337.882)">
                            <path d="M0.258,-0.079L0.271,-0.001C0.246,0.004 0.224,0.007 0.204,0.007C0.172,0.007 0.147,0.002 0.13,-0.008C0.112,-0.018 0.1,-0.032 0.093,-0.048C0.086,-0.065 0.082,-0.099 0.082,-0.152L0.082,-0.45L0.018,-0.45L0.018,-0.519L0.082,-0.519L0.082,-0.647L0.169,-0.7L0.169,-0.519L0.258,-0.519L0.258,-0.45L0.169,-0.45L0.169,-0.147C0.169,-0.122 0.171,-0.106 0.174,-0.099C0.177,-0.091 0.182,-0.086 0.189,-0.082C0.196,-0.077 0.206,-0.075 0.219,-0.075C0.229,-0.075 0.242,-0.076 0.258,-0.079Z" style="fill-rule:nonzero;"/>
                        </g>
                        <g transform="matrix(6,0,0,6,91.834,337.882)">
                            <path d="M0.066,-0L0.066,-0.519L0.145,-0.519L0.145,-0.445C0.183,-0.502 0.238,-0.53 0.31,-0.53C0.341,-0.53 0.37,-0.525 0.396,-0.513C0.422,-0.502 0.442,-0.487 0.455,-0.469C0.468,-0.451 0.477,-0.429 0.482,-0.404C0.486,-0.388 0.487,-0.36 0.487,-0.319L0.487,-0L0.399,-0L0.399,-0.315C0.399,-0.351 0.396,-0.378 0.389,-0.396C0.382,-0.413 0.37,-0.428 0.353,-0.438C0.335,-0.449 0.315,-0.454 0.292,-0.454C0.254,-0.454 0.222,-0.442 0.195,-0.418C0.167,-0.395 0.154,-0.35 0.154,-0.283L0.154,-0L0.066,-0Z" style="fill-rule:nonzero;"/>
                        </g>
                    </g>
                    <g transform="matrix(1.57188,0,0,1.57188,59.5092,-70.6012)">
                        <g transform="matrix(11.4512,0,0,11.4512,88.6524,337.882)">
                            <path d="M0.258,-0.079L0.271,-0.001C0.246,0.004 0.224,0.007 0.204,0.007C0.172,0.007 0.147,0.002 0.13,-0.008C0.112,-0.018 0.1,-0.032 0.093,-0.048C0.086,-0.065 0.082,-0.099 0.082,-0.152L0.082,-0.45L0.018,-0.45L0.018,-0.519L0.082,-0.519L0.082,-0.647L0.169,-0.7L0.169,-0.519L0.258,-0.519L0.258,-0.45L0.169,-0.45L0.169,-0.147C0.169,-0.122 0.171,-0.106 0.174,-0.099C0.177,-0.091 0.182,-0.086 0.189,-0.082C0.196,-0.077 0.206,-0.075 0.219,-0.075C0.229,-0.075 0.242,-0.076 0.258,-0.079Z" style="fill-rule:nonzero;"/>
                        </g>
                        <g transform="matrix(6,0,0,6,91.834,337.882)">
                            <path d="M0.066,-0L0.066,-0.519L0.145,-0.519L0.145,-0.445C0.183,-0.502 0.238,-0.53 0.31,-0.53C0.341,-0.53 0.37,-0.525 0.396,-0.513C0.422,-0.502 0.442,-0.487 0.455,-0.469C0.468,-0.451 0.477,-0.429 0.482,-0.404C0.486,-0.388 0.487,-0.36 0.487,-0.319L0.487,-0L0.399,-0L0.399,-0.315C0.399,-0.351 0.396,-0.378 0.389,-0.396C0.382,-0.413 0.37,-0.428 0.353,-0.438C0.335,-0.449 0.315,-0.454 0.292,-0.454C0.254,-0.454 0.222,-0.442 0.195,-0.418C0.167,-0.395 0.154,-0.35 0.154,-0.283L0.154,-0L0.066,-0Z" style="fill-rule:nonzero;"/>
                        </g>
                        <g transform="matrix(6.99798,0,0,6.99798,97.1151,337.882)">
                            <path d="M0.25,-0.116L0.25,-0.312L0.056,-0.312L0.056,-0.394L0.25,-0.394L0.25,-0.589L0.333,-0.589L0.333,-0.394L0.528,-0.394L0.528,-0.312L0.333,-0.312L0.333,-0.116L0.25,-0.116Z" style="fill-rule:nonzero;"/>
                        </g>
                    </g>
                    <g transform="matrix(1.57188,0,0,1.57188,189.986,-70.6012)">
                        <g transform="matrix(11.4512,0,0,11.4512,88.6524,337.882)">
                            <path d="M0.258,-0.079L0.271,-0.001C0.246,0.004 0.224,0.007 0.204,0.007C0.172,0.007 0.147,0.002 0.13,-0.008C0.112,-0.018 0.1,-0.032 0.093,-0.048C0.086,-0.065 0.082,-0.099 0.082,-0.152L0.082,-0.45L0.018,-0.45L0.018,-0.519L0.082,-0.519L0.082,-0.647L0.169,-0.7L0.169,-0.519L0.258,-0.519L0.258,-0.45L0.169,-0.45L0.169,-0.147C0.169,-0.122 0.171,-0.106 0.174,-0.099C0.177,-0.091 0.182,-0.086 0.189,-0.082C0.196,-0.077 0.206,-0.075 0.219,-0.075C0.229,-0.075 0.242,-0.076 0.258,-0.079Z" style="fill-rule:nonzero;"/>
                        </g>
                        <g transform="matrix(6,0,0,6,91.834,337.882)">
                            <path d="M0.066,-0L0.066,-0.519L0.145,-0.519L0.145,-0.445C0.183,-0.502 0.238,-0.53 0.31,-0.53C0.341,-0.53 0.37,-0.525 0.396,-0.513C0.422,-0.502 0.442,-0.487 0.455,-0.469C0.468,-0.451 0.477,-0.429 0.482,-0.404C0.486,-0.388 0.487,-0.36 0.487,-0.319L0.487,-0L0.399,-0L0.399,-0.315C0.399,-0.351 0.396,-0.378 0.389,-0.396C0.382,-0.413 0.37,-0.428 0.353,-0.438C0.335,-0.449 0.315,-0.454 0.292,-0.454C0.254,-0.454 0.222,-0.442 0.195,-0.418C0.167,-0.395 0.154,-0.35 0.154,-0.283L0.154,-0L0.066,-0Z" style="fill-rule:nonzero;"/>
                        </g>
                        <g transform="matrix(6.99798,0,0,6.99798,97.1151,337.882)">
                            <path d="M0.25,-0.116L0.25,-0.312L0.056,-0.312L0.056,-0.394L0.25,-0.394L0.25,-0.589L0.333,-0.589L0.333,-0.394L0.528,-0.394L0.528,-0.312L0.333,-0.312L0.333,-0.116L0.25,-0.116Z" style="fill-rule:nonzero;"/>
                        </g>
                        <g transform="matrix(8.90652,0,0,8.90652,103.146,337.882)">
                            <path d="M0.402,-0L0.402,-0.065C0.369,-0.014 0.321,0.012 0.257,0.012C0.216,0.012 0.178,0 0.143,-0.022C0.109,-0.045 0.082,-0.077 0.063,-0.118C0.044,-0.159 0.034,-0.206 0.034,-0.259C0.034,-0.311 0.043,-0.358 0.06,-0.4C0.077,-0.442 0.103,-0.474 0.138,-0.497C0.172,-0.519 0.211,-0.53 0.253,-0.53C0.285,-0.53 0.313,-0.524 0.337,-0.51C0.361,-0.497 0.381,-0.48 0.396,-0.459L0.396,-0.716L0.484,-0.716L0.484,-0L0.402,-0ZM0.125,-0.259C0.125,-0.192 0.139,-0.143 0.167,-0.11C0.194,-0.077 0.228,-0.061 0.266,-0.061C0.304,-0.061 0.337,-0.076 0.364,-0.108C0.39,-0.139 0.404,-0.187 0.404,-0.251C0.404,-0.322 0.39,-0.375 0.363,-0.408C0.335,-0.441 0.302,-0.458 0.262,-0.458C0.223,-0.458 0.19,-0.442 0.164,-0.41C0.138,-0.378 0.125,-0.327 0.125,-0.259Z" style="fill-rule:nonzero;"/>
                        </g>
                        <g transform="matrix(8.90652,0,0,8.90652,108.099,337.882)">
                            <path d="M0.258,-0.079L0.271,-0.001C0.246,0.004 0.224,0.007 0.204,0.007C0.172,0.007 0.147,0.002 0.13,-0.008C0.112,-0.018 0.1,-0.032 0.093,-0.048C0.086,-0.065 0.082,-0.099 0.082,-0.152L0.082,-0.45L0.018,-0.45L0.018,-0.519L0.082,-0.519L0.082,-0.647L0.169,-0.7L0.169,-0.519L0.258,-0.519L0.258,-0.45L0.169,-0.45L0.169,-0.147C0.169,-0.122 0.171,-0.106 0.174,-0.099C0.177,-0.091 0.182,-0.086 0.189,-0.082C0.196,-0.077 0.206,-0.075 0.219,-0.075C0.229,-0.075 0.242,-0.076 0.258,-0.079Z" style="fill-rule:nonzero;"/>
                        </g>
                    </g>
                    <g transform="matrix(1,0,0,1,11.2965,0.624738)">
                        <g transform="matrix(11,0,0,11,71.0325,297.458)">
                            <path d="M0.031,-0.584L0.054,-0.654C0.105,-0.636 0.143,-0.62 0.167,-0.606C0.16,-0.665 0.157,-0.706 0.157,-0.728L0.228,-0.728C0.227,-0.696 0.223,-0.655 0.216,-0.607C0.25,-0.624 0.288,-0.639 0.332,-0.654L0.354,-0.584C0.313,-0.571 0.272,-0.562 0.232,-0.557C0.252,-0.54 0.28,-0.509 0.316,-0.465L0.258,-0.423C0.239,-0.449 0.217,-0.484 0.191,-0.528C0.167,-0.482 0.146,-0.447 0.127,-0.423L0.07,-0.465C0.108,-0.511 0.135,-0.542 0.151,-0.557C0.109,-0.565 0.069,-0.574 0.031,-0.584Z" style="fill-rule:nonzero;"/>
                        </g>
                    </g>
                    <g transform="matrix(1.57188,0,0,1.57188,-46.5593,-226.712)">
                        <g transform="matrix(8.27034,0,0,8.27034,88.6524,337.882)">
                            <path d="M0.503,-0.084L0.503,-0L0.03,-0C0.03,-0.021 0.033,-0.042 0.041,-0.061C0.053,-0.093 0.072,-0.125 0.098,-0.156C0.125,-0.188 0.163,-0.224 0.213,-0.265C0.291,-0.328 0.344,-0.379 0.371,-0.416C0.398,-0.454 0.412,-0.489 0.412,-0.522C0.412,-0.557 0.4,-0.586 0.375,-0.61C0.35,-0.634 0.317,-0.646 0.277,-0.646C0.235,-0.646 0.201,-0.633 0.176,-0.608C0.15,-0.583 0.138,-0.547 0.137,-0.502L0.047,-0.512C0.053,-0.579 0.076,-0.63 0.117,-0.666C0.157,-0.701 0.211,-0.719 0.279,-0.719C0.348,-0.719 0.402,-0.7 0.442,-0.662C0.482,-0.624 0.502,-0.576 0.502,-0.52C0.502,-0.491 0.497,-0.463 0.485,-0.436C0.473,-0.408 0.454,-0.379 0.427,-0.348C0.399,-0.318 0.354,-0.276 0.291,-0.222C0.238,-0.178 0.204,-0.148 0.189,-0.132C0.174,-0.116 0.162,-0.1 0.152,-0.084L0.503,-0.084Z" style="fill-rule:nonzero;"/>
                        </g>
                    </g>
                    <g transform="matrix(1.57188,0,0,1.57188,82.2837,-76.2414)">
                        <g transform="matrix(8.90652,0,0,8.90652,88.6524,337.882)">
                            <path d="M0.402,-0L0.402,-0.065C0.369,-0.014 0.321,0.012 0.257,0.012C0.216,0.012 0.178,0 0.143,-0.022C0.109,-0.045 0.082,-0.077 0.063,-0.118C0.044,-0.159 0.034,-0.206 0.034,-0.259C0.034,-0.311 0.043,-0.358 0.06,-0.4C0.077,-0.442 0.103,-0.474 0.138,-0.497C0.172,-0.519 0.211,-0.53 0.253,-0.53C0.285,-0.53 0.313,-0.524 0.337,-0.51C0.361,-0.497 0.381,-0.48 0.396,-0.459L0.396,-0.716L0.484,-0.716L0.484,-0L0.402,-0ZM0.125,-0.259C0.125,-0.192 0.139,-0.143 0.167,-0.11C0.194,-0.077 0.228,-0.061 0.266,-0.061C0.304,-0.061 0.337,-0.076 0.364,-0.108C0.39,-0.139 0.404,-0.187 0.404,-0.251C0.404,-0.322 0.39,-0.375 0.363,-0.408C0.335,-0.441 0.302,-0.458 0.262,-0.458C0.223,-0.458 0.19,-0.442 0.164,-0.41C0.138,-0.378 0.125,-0.327 0.125,-0.259Z" style="fill-rule:nonzero;"/>
                        </g>
                        <g transform="matrix(8.90652,0,0,8.90652,93.6058,337.882)">
                            <path d="M0.258,-0.079L0.271,-0.001C0.246,0.004 0.224,0.007 0.204,0.007C0.172,0.007 0.147,0.002 0.13,-0.008C0.112,-0.018 0.1,-0.032 0.093,-0.048C0.086,-0.065 0.082,-0.099 0.082,-0.152L0.082,-0.45L0.018,-0.45L0.018,-0.519L0.082,-0.519L0.082,-0.647L0.169,-0.7L0.169,-0.519L0.258,-0.519L0.258,-0.45L0.169,-0.45L0.169,-0.147C0.169,-0.122 0.171,-0.106 0.174,-0.099C0.177,-0.091 0.182,-0.086 0.189,-0.082C0.196,-0.077 0.206,-0.075 0.219,-0.075C0.229,-0.075 0.242,-0.076 0.258,-0.079Z" style="fill-rule:nonzero;"/>
                        </g>
                    </g>
                    <g transform="matrix(1.57188,0,0,1.57188,85.9984,-60.5479)">
                        <g transform="matrix(8.27034,0,0,8.27034,88.6524,337.882)">
                            <path d="M0.503,-0.084L0.503,-0L0.03,-0C0.03,-0.021 0.033,-0.042 0.041,-0.061C0.053,-0.093 0.072,-0.125 0.098,-0.156C0.125,-0.188 0.163,-0.224 0.213,-0.265C0.291,-0.328 0.344,-0.379 0.371,-0.416C0.398,-0.454 0.412,-0.489 0.412,-0.522C0.412,-0.557 0.4,-0.586 0.375,-0.61C0.35,-0.634 0.317,-0.646 0.277,-0.646C0.235,-0.646 0.201,-0.633 0.176,-0.608C0.15,-0.583 0.138,-0.547 0.137,-0.502L0.047,-0.512C0.053,-0.579 0.076,-0.63 0.117,-0.666C0.157,-0.701 0.211,-0.719 0.279,-0.719C0.348,-0.719 0.402,-0.7 0.442,-0.662C0.482,-0.624 0.502,-0.576 0.502,-0.52C0.502,-0.491 0.497,-0.463 0.485,-0.436C0.473,-0.408 0.454,-0.379 0.427,-0.348C0.399,-0.318 0.354,-0.276 0.291,-0.222C0.238,-0.178 0.204,-0.148 0.189,-0.132C0.174,-0.116 0.162,-0.1 0.152,-0.084L0.503,-0.084Z" style="fill-rule:nonzero;"/>
                        </g>
                    </g>
                    <g transform="matrix(1.57188,0,0,1.57188,-50.2739,-272.409)">
                        <g transform="matrix(11.4512,0,0,11.4512,88.6524,337.882)">
                            <path d="M0.066,-0L0.066,-0.716L0.154,-0.716L0.154,-0.308L0.362,-0.519L0.476,-0.519L0.278,-0.326L0.496,-0L0.388,-0L0.216,-0.265L0.154,-0.206L0.154,-0L0.066,-0Z" style="fill-rule:nonzero;"/>
                        </g>
                        <g transform="matrix(6.99798,0,0,6.99798,94.3781,337.882)">
                            <path d="M0.503,-0.084L0.503,-0L0.03,-0C0.03,-0.021 0.033,-0.042 0.041,-0.061C0.053,-0.093 0.072,-0.125 0.098,-0.156C0.125,-0.188 0.163,-0.224 0.213,-0.265C0.291,-0.328 0.344,-0.379 0.371,-0.416C0.398,-0.454 0.412,-0.489 0.412,-0.522C0.412,-0.557 0.4,-0.586 0.375,-0.61C0.35,-0.634 0.317,-0.646 0.277,-0.646C0.235,-0.646 0.201,-0.633 0.176,-0.608C0.15,-0.583 0.138,-0.547 0.137,-0.502L0.047,-0.512C0.053,-0.579 0.076,-0.63 0.117,-0.666C0.157,-0.701 0.211,-0.719 0.279,-0.719C0.348,-0.719 0.402,-0.7 0.442,-0.662C0.482,-0.624 0.502,-0.576 0.502,-0.52C0.502,-0.491 0.497,-0.463 0.485,-0.436C0.473,-0.408 0.454,-0.379 0.427,-0.348C0.399,-0.318 0.354,-0.276 0.291,-0.222C0.238,-0.178 0.204,-0.148 0.189,-0.132C0.174,-0.116 0.162,-0.1 0.152,-0.084L0.503,-0.084Z" style="fill-rule:nonzero;"/>
                        </g>
                    </g>
                    <g transform="matrix(1.57188,0,0,1.57188,-98.5601,-267.387)">
                        <g transform="matrix(11.4512,0,0,11.4512,88.6524,337.882)">
                            <path d="M0.007,-0L0.197,-0.27L0.021,-0.519L0.131,-0.519L0.211,-0.397C0.226,-0.374 0.238,-0.354 0.247,-0.339C0.261,-0.36 0.275,-0.379 0.287,-0.396L0.374,-0.519L0.479,-0.519L0.3,-0.274L0.493,-0L0.385,-0L0.278,-0.161L0.25,-0.205L0.114,-0L0.007,-0Z" style="fill-rule:nonzero;"/>
                        </g>
                        <g transform="matrix(6,0,0,6,94.3781,337.882)">
                            <path d="M0.066,-0L0.066,-0.519L0.145,-0.519L0.145,-0.445C0.183,-0.502 0.238,-0.53 0.31,-0.53C0.341,-0.53 0.37,-0.525 0.396,-0.513C0.422,-0.502 0.442,-0.487 0.455,-0.469C0.468,-0.451 0.477,-0.429 0.482,-0.404C0.486,-0.388 0.487,-0.36 0.487,-0.319L0.487,-0L0.399,-0L0.399,-0.315C0.399,-0.351 0.396,-0.378 0.389,-0.396C0.382,-0.413 0.37,-0.428 0.353,-0.438C0.335,-0.449 0.315,-0.454 0.292,-0.454C0.254,-0.454 0.222,-0.442 0.195,-0.418C0.167,-0.395 0.154,-0.35 0.154,-0.283L0.154,-0L0.066,-0Z" style="fill-rule:nonzero;"/>
                        </g>
                        <g transform="matrix(6.99798,0,0,6.99798,99.6592,337.882)">
                            <path d="M0.25,-0.116L0.25,-0.312L0.056,-0.312L0.056,-0.394L0.25,-0.394L0.25,-0.589L0.333,-0.589L0.333,-0.394L0.528,-0.394L0.528,-0.312L0.333,-0.312L0.333,-0.116L0.25,-0.116Z" style="fill-rule:nonzero;"/>
                        </g>
                        <g transform="matrix(8.90652,0,0,8.90652,105.69,337.882)">
                            <path d="M0.402,-0L0.402,-0.065C0.369,-0.014 0.321,0.012 0.257,0.012C0.216,0.012 0.178,0 0.143,-0.022C0.109,-0.045 0.082,-0.077 0.063,-0.118C0.044,-0.159 0.034,-0.206 0.034,-0.259C0.034,-0.311 0.043,-0.358 0.06,-0.4C0.077,-0.442 0.103,-0.474 0.138,-0.497C0.172,-0.519 0.211,-0.53 0.253,-0.53C0.285,-0.53 0.313,-0.524 0.337,-0.51C0.361,-0.497 0.381,-0.48 0.396,-0.459L0.396,-0.716L0.484,-0.716L0.484,-0L0.402,-0ZM0.125,-0.259C0.125,-0.192 0.139,-0.143 0.167,-0.11C0.194,-0.077 0.228,-0.061 0.266,-0.061C0.304,-0.061 0.337,-0.076 0.364,-0.108C0.39,-0.139 0.404,-0.187 0.404,-0.251C0.404,-0.322 0.39,-0.375 0.363,-0.408C0.335,-0.441 0.302,-0.458 0.262,-0.458C0.223,-0.458 0.19,-0.442 0.164,-0.41C0.138,-0.378 0.125,-0.327 0.125,-0.259Z" style="fill-rule:nonzero;"/>
                        </g>
                        <g transform="matrix(8.90652,0,0,8.90652,110.644,337.882)">
                            <path d="M0.258,-0.079L0.271,-0.001C0.246,0.004 0.224,0.007 0.204,0.007C0.172,0.007 0.147,0.002 0.13,-0.008C0.112,-0.018 0.1,-0.032 0.093,-0.048C0.086,-0.065 0.082,-0.099 0.082,-0.152L0.082,-0.45L0.018,-0.45L0.018,-0.519L0.082,-0.519L0.082,-0.647L0.169,-0.7L0.169,-0.519L0.258,-0.519L0.258,-0.45L0.169,-0.45L0.169,-0.147C0.169,-0.122 0.171,-0.106 0.174,-0.099C0.177,-0.091 0.182,-0.086 0.189,-0.082C0.196,-0.077 0.206,-0.075 0.219,-0.075C0.229,-0.075 0.242,-0.076 0.258,-0.079Z" style="fill-rule:nonzero;"/>
                        </g>
                    </g>
                    <g transform="matrix(1,0,0,1,11.2965,-31.378)">
                        <g transform="matrix(11,0,0,11,71.0325,297.458)">
                            <path d="M0.031,-0.584L0.054,-0.654C0.105,-0.636 0.143,-0.62 0.167,-0.606C0.16,-0.665 0.157,-0.706 0.157,-0.728L0.228,-0.728C0.227,-0.696 0.223,-0.655 0.216,-0.607C0.25,-0.624 0.288,-0.639 0.332,-0.654L0.354,-0.584C0.313,-0.571 0.272,-0.562 0.232,-0.557C0.252,-0.54 0.28,-0.509 0.316,-0.465L0.258,-0.423C0.239,-0.449 0.217,-0.484 0.191,-0.528C0.167,-0.482 0.146,-0.447 0.127,-0.423L0.07,-0.465C0.108,-0.511 0.135,-0.542 0.151,-0.557C0.109,-0.565 0.069,-0.574 0.031,-0.584Z" style="fill-rule:nonzero;"/>
                        </g>
                    </g>
                    <g transform="matrix(3.24681,0,0,1.22634,-197.749,-155.289)">
                        <g transform="matrix(6.88433,0,0,6.88433,88.6524,337.882)">
                            <rect x="-0.015" y="0.135" width="0.583" height="0.063" style="fill-rule:nonzero;"/>
                        </g>
                    </g>
                    <g transform="matrix(3.24681,0,0,1.22634,-197.749,-122.61)">
                        <g transform="matrix(6.88433,0,0,6.88433,88.6524,337.882)">
                            <rect x="-0.015" y="0.135" width="0.583" height="0.063" style="fill-rule:nonzero;"/>
                        </g>
                    </g>
                    <g transform="matrix(3.24681,0,0,1.22634,-65.3519,42.1216)">
                        <g transform="matrix(6.88433,0,0,6.88433,88.6524,337.882)">
                            <rect x="-0.015" y="0.135" width="0.583" height="0.063" style="fill-rule:nonzero;"/>
                        </g>
                    </g>
                    <g transform="matrix(1.57188,0,0,1.57188,-46.5593,-258.715)">
                        <g transform="matrix(8.27034,0,0,8.27034,88.6524,337.882)">
                            <path d="M0.503,-0.084L0.503,-0L0.03,-0C0.03,-0.021 0.033,-0.042 0.041,-0.061C0.053,-0.093 0.072,-0.125 0.098,-0.156C0.125,-0.188 0.163,-0.224 0.213,-0.265C0.291,-0.328 0.344,-0.379 0.371,-0.416C0.398,-0.454 0.412,-0.489 0.412,-0.522C0.412,-0.557 0.4,-0.586 0.375,-0.61C0.35,-0.634 0.317,-0.646 0.277,-0.646C0.235,-0.646 0.201,-0.633 0.176,-0.608C0.15,-0.583 0.138,-0.547 0.137,-0.502L0.047,-0.512C0.053,-0.579 0.076,-0.63 0.117,-0.666C0.157,-0.701 0.211,-0.719 0.279,-0.719C0.348,-0.719 0.402,-0.7 0.442,-0.662C0.482,-0.624 0.502,-0.576 0.502,-0.52C0.502,-0.491 0.497,-0.463 0.485,-0.436C0.473,-0.408 0.454,-0.379 0.427,-0.348C0.399,-0.318 0.354,-0.276 0.291,-0.222C0.238,-0.178 0.204,-0.148 0.189,-0.132C0.174,-0.116 0.162,-0.1 0.152,-0.084L0.503,-0.084Z" style="fill-rule:nonzero;"/>
                        </g>
                    </g>
                    <g transform="matrix(1.57188,0,0,1.57188,-50.2739,-375.797)">
                        <g transform="matrix(11.4512,0,0,11.4512,88.6524,337.882)">
                            <path d="M0.066,-0L0.066,-0.716L0.154,-0.716L0.154,-0.308L0.362,-0.519L0.476,-0.519L0.278,-0.326L0.496,-0L0.388,-0L0.216,-0.265L0.154,-0.206L0.154,-0L0.066,-0Z" style="fill-rule:nonzero;"/>
                        </g>
                        <g transform="matrix(6.99798,0,0,6.99798,94.3781,337.882)">
                            <path d="M0.042,-0.189L0.13,-0.201C0.14,-0.151 0.157,-0.115 0.181,-0.093C0.206,-0.071 0.235,-0.06 0.27,-0.06C0.311,-0.06 0.346,-0.074 0.375,-0.103C0.403,-0.132 0.417,-0.167 0.417,-0.209C0.417,-0.25 0.404,-0.283 0.378,-0.309C0.352,-0.336 0.318,-0.349 0.277,-0.349C0.261,-0.349 0.24,-0.345 0.215,-0.339L0.225,-0.416C0.231,-0.415 0.236,-0.415 0.239,-0.415C0.277,-0.415 0.31,-0.425 0.34,-0.444C0.37,-0.464 0.385,-0.494 0.385,-0.535C0.385,-0.567 0.374,-0.594 0.353,-0.615C0.331,-0.636 0.303,-0.646 0.268,-0.646C0.234,-0.646 0.205,-0.636 0.183,-0.614C0.16,-0.593 0.145,-0.561 0.139,-0.518L0.051,-0.533C0.062,-0.592 0.086,-0.638 0.124,-0.67C0.162,-0.703 0.209,-0.719 0.266,-0.719C0.305,-0.719 0.341,-0.71 0.374,-0.694C0.407,-0.677 0.432,-0.654 0.449,-0.625C0.467,-0.596 0.476,-0.565 0.476,-0.533C0.476,-0.502 0.467,-0.474 0.451,-0.448C0.434,-0.423 0.41,-0.403 0.377,-0.388C0.419,-0.378 0.452,-0.358 0.476,-0.327C0.499,-0.296 0.511,-0.258 0.511,-0.211C0.511,-0.149 0.488,-0.096 0.442,-0.052C0.397,-0.009 0.339,0.013 0.27,0.013C0.207,0.013 0.155,-0.006 0.113,-0.043C0.072,-0.081 0.048,-0.129 0.042,-0.189Z" style="fill-rule:nonzero;"/>
                        </g>
                    </g>
                    <g transform="matrix(1.2255,0,0,1.2255,249.847,-344.331)">
                        <g transform="matrix(11.4512,0,0,11.4512,88.6524,337.882)">
                            <path d="M0.007,-0L0.197,-0.27L0.021,-0.519L0.131,-0.519L0.211,-0.397C0.226,-0.374 0.238,-0.354 0.247,-0.339C0.261,-0.36 0.275,-0.379 0.287,-0.396L0.374,-0.519L0.479,-0.519L0.3,-0.274L0.493,-0L0.385,-0L0.278,-0.161L0.25,-0.205L0.114,-0L0.007,-0Z" style="fill:rgb(89,98,166);fill-rule:nonzero;"/>
                        </g>
                        <g transform="matrix(11.4512,0,0,11.4512,94.3781,337.882)">
                            <path d="M0.234,0.21C0.185,0.149 0.144,0.078 0.111,-0.004C0.077,-0.086 0.061,-0.171 0.061,-0.259C0.061,-0.337 0.073,-0.411 0.098,-0.482C0.127,-0.564 0.173,-0.646 0.234,-0.728L0.297,-0.728C0.257,-0.66 0.231,-0.612 0.219,-0.583C0.199,-0.538 0.183,-0.491 0.172,-0.442C0.158,-0.382 0.151,-0.32 0.151,-0.259C0.151,-0.102 0.2,0.054 0.297,0.21L0.234,0.21Z" style="fill:rgb(89,98,166);fill-rule:nonzero;"/>
                        </g>
                        <g transform="matrix(11.4512,0,0,11.4512,98.1914,337.882)">
                            <path d="M0.258,-0.079L0.271,-0.001C0.246,0.004 0.224,0.007 0.204,0.007C0.172,0.007 0.147,0.002 0.13,-0.008C0.112,-0.018 0.1,-0.032 0.093,-0.048C0.086,-0.065 0.082,-0.099 0.082,-0.152L0.082,-0.45L0.018,-0.45L0.018,-0.519L0.082,-0.519L0.082,-0.647L0.169,-0.7L0.169,-0.519L0.258,-0.519L0.258,-0.45L0.169,-0.45L0.169,-0.147C0.169,-0.122 0.171,-0.106 0.174,-0.099C0.177,-0.091 0.182,-0.086 0.189,-0.082C0.196,-0.077 0.206,-0.075 0.219,-0.075C0.229,-0.075 0.242,-0.076 0.258,-0.079Z" style="fill:rgb(89,98,166);fill-rule:nonzero;"/>
                        </g>
                        <g transform="matrix(11.4512,0,0,11.4512,101.373,337.882)">
                            <path d="M0.124,0.21L0.061,0.21C0.158,0.054 0.207,-0.102 0.207,-0.259C0.207,-0.32 0.2,-0.381 0.186,-0.441C0.174,-0.49 0.159,-0.537 0.139,-0.582C0.126,-0.611 0.1,-0.66 0.061,-0.728L0.124,-0.728C0.185,-0.646 0.23,-0.564 0.259,-0.482C0.284,-0.411 0.297,-0.337 0.297,-0.259C0.297,-0.171 0.28,-0.086 0.246,-0.004C0.213,0.078 0.172,0.149 0.124,0.21Z" style="fill:rgb(89,98,166);fill-rule:nonzero;"/>
                        </g>
                    </g>
                    <g transform="matrix(1.57188,0,0,1.57188,-98.5601,-375.776)">
                        <g transform="matrix(11.4512,0,0,11.4512,88.6524,337.882)">
                            <path d="M0.007,-0L0.197,-0.27L0.021,-0.519L0.131,-0.519L0.211,-0.397C0.226,-0.374 0.238,-0.354 0.247,-0.339C0.261,-0.36 0.275,-0.379 0.287,-0.396L0.374,-0.519L0.479,-0.519L0.3,-0.274L0.493,-0L0.385,-0L0.278,-0.161L0.25,-0.205L0.114,-0L0.007,-0Z" style="fill-rule:nonzero;"/>
                        </g>
                        <g transform="matrix(6,0,0,6,94.3781,337.882)">
                            <path d="M0.066,-0L0.066,-0.519L0.145,-0.519L0.145,-0.445C0.183,-0.502 0.238,-0.53 0.31,-0.53C0.341,-0.53 0.37,-0.525 0.396,-0.513C0.422,-0.502 0.442,-0.487 0.455,-0.469C0.468,-0.451 0.477,-0.429 0.482,-0.404C0.486,-0.388 0.487,-0.36 0.487,-0.319L0.487,-0L0.399,-0L0.399,-0.315C0.399,-0.351 0.396,-0.378 0.389,-0.396C0.382,-0.413 0.37,-0.428 0.353,-0.438C0.335,-0.449 0.315,-0.454 0.292,-0.454C0.254,-0.454 0.222,-0.442 0.195,-0.418C0.167,-0.395 0.154,-0.35 0.154,-0.283L0.154,-0L0.066,-0Z" style="fill-rule:nonzero;"/>
                        </g>
                        <g transform="matrix(6.99798,0,0,6.99798,99.6592,337.882)">
                            <path d="M0.25,-0.116L0.25,-0.312L0.056,-0.312L0.056,-0.394L0.25,-0.394L0.25,-0.589L0.333,-0.589L0.333,-0.394L0.528,-0.394L0.528,-0.312L0.333,-0.312L0.333,-0.116L0.25,-0.116Z" style="fill-rule:nonzero;"/>
                        </g>
                        <g transform="matrix(8.90652,0,0,8.90652,105.69,337.882)">
                            <path d="M0.402,-0L0.402,-0.065C0.369,-0.014 0.321,0.012 0.257,0.012C0.216,0.012 0.178,0 0.143,-0.022C0.109,-0.045 0.082,-0.077 0.063,-0.118C0.044,-0.159 0.034,-0.206 0.034,-0.259C0.034,-0.311 0.043,-0.358 0.06,-0.4C0.077,-0.442 0.103,-0.474 0.138,-0.497C0.172,-0.519 0.211,-0.53 0.253,-0.53C0.285,-0.53 0.313,-0.524 0.337,-0.51C0.361,-0.497 0.381,-0.48 0.396,-0.459L0.396,-0.716L0.484,-0.716L0.484,-0L0.402,-0ZM0.125,-0.259C0.125,-0.192 0.139,-0.143 0.167,-0.11C0.194,-0.077 0.228,-0.061 0.266,-0.061C0.304,-0.061 0.337,-0.076 0.364,-0.108C0.39,-0.139 0.404,-0.187 0.404,-0.251C0.404,-0.322 0.39,-0.375 0.363,-0.408C0.335,-0.441 0.302,-0.458 0.262,-0.458C0.223,-0.458 0.19,-0.442 0.164,-0.41C0.138,-0.378 0.125,-0.327 0.125,-0.259Z" style="fill-rule:nonzero;"/>
                        </g>
                        <g transform="matrix(8.90652,0,0,8.90652,110.644,337.882)">
                            <path d="M0.258,-0.079L0.271,-0.001C0.246,0.004 0.224,0.007 0.204,0.007C0.172,0.007 0.147,0.002 0.13,-0.008C0.112,-0.018 0.1,-0.032 0.093,-0.048C0.086,-0.065 0.082,-0.099 0.082,-0.152L0.082,-0.45L0.018,-0.45L0.018,-0.519L0.082,-0.519L0.082,-0.647L0.169,-0.7L0.169,-0.519L0.258,-0.519L0.258,-0.45L0.169,-0.45L0.169,-0.147C0.169,-0.122 0.171,-0.106 0.174,-0.099C0.177,-0.091 0.182,-0.086 0.189,-0.082C0.196,-0.077 0.206,-0.075 0.219,-0.075C0.229,-0.075 0.242,-0.076 0.258,-0.079Z" style="fill-rule:nonzero;"/>
                        </g>
                    </g>
                    <g transform="matrix(1,0,0,1,11.2965,-139.767)">
                        <g transform="matrix(11,0,0,11,71.0325,297.458)">
                            <path d="M0.031,-0.584L0.054,-0.654C0.105,-0.636 0.143,-0.62 0.167,-0.606C0.16,-0.665 0.157,-0.706 0.157,-0.728L0.228,-0.728C0.227,-0.696 0.223,-0.655 0.216,-0.607C0.25,-0.624 0.288,-0.639 0.332,-0.654L0.354,-0.584C0.313,-0.571 0.272,-0.562 0.232,-0.557C0.252,-0.54 0.28,-0.509 0.316,-0.465L0.258,-0.423C0.239,-0.449 0.217,-0.484 0.191,-0.528C0.167,-0.482 0.146,-0.447 0.127,-0.423L0.07,-0.465C0.108,-0.511 0.135,-0.542 0.151,-0.557C0.109,-0.565 0.069,-0.574 0.031,-0.584Z" style="fill-rule:nonzero;"/>
                        </g>
                    </g>
                    <g transform="matrix(1,0,0,1,-46.8713,-79.8547)">
                        <path d="M314.539,311.874L314.539,321.773C314.539,324.458 312.359,326.638 309.674,326.638L299.944,326.638C297.258,326.638 295.078,324.458 295.078,321.773L295.078,311.874C295.078,309.189 297.258,307.009 299.944,307.009L309.674,307.009C312.359,307.009 314.539,309.189 314.539,311.874Z" style="fill:white;fill-opacity:0.89;stroke:rgb(242,13,13);stroke-opacity:0.6;stroke-width:0.55px;stroke-miterlimit:1.5;"/>
                    </g>
                    <g transform="matrix(1.57188,0,0,1.57188,110.68,-287.769)">
                        <g transform="matrix(11.4512,0,0,11.4512,88.6524,337.882)">
                            <path d="M0.066,-0L0.066,-0.716L0.154,-0.716L0.154,-0.308L0.362,-0.519L0.476,-0.519L0.278,-0.326L0.496,-0L0.388,-0L0.216,-0.265L0.154,-0.206L0.154,-0L0.066,-0Z" style="fill:rgb(204,51,51);fill-rule:nonzero;"/>
                        </g>
                        <g transform="matrix(6.99798,0,0,6.99798,94.3781,337.882)">
                            <path d="M0.042,-0.189L0.13,-0.201C0.14,-0.151 0.157,-0.115 0.181,-0.093C0.206,-0.071 0.235,-0.06 0.27,-0.06C0.311,-0.06 0.346,-0.074 0.375,-0.103C0.403,-0.132 0.417,-0.167 0.417,-0.209C0.417,-0.25 0.404,-0.283 0.378,-0.309C0.352,-0.336 0.318,-0.349 0.277,-0.349C0.261,-0.349 0.24,-0.345 0.215,-0.339L0.225,-0.416C0.231,-0.415 0.236,-0.415 0.239,-0.415C0.277,-0.415 0.31,-0.425 0.34,-0.444C0.37,-0.464 0.385,-0.494 0.385,-0.535C0.385,-0.567 0.374,-0.594 0.353,-0.615C0.331,-0.636 0.303,-0.646 0.268,-0.646C0.234,-0.646 0.205,-0.636 0.183,-0.614C0.16,-0.593 0.145,-0.561 0.139,-0.518L0.051,-0.533C0.062,-0.592 0.086,-0.638 0.124,-0.67C0.162,-0.703 0.209,-0.719 0.266,-0.719C0.305,-0.719 0.341,-0.71 0.374,-0.694C0.407,-0.677 0.432,-0.654 0.449,-0.625C0.467,-0.596 0.476,-0.565 0.476,-0.533C0.476,-0.502 0.467,-0.474 0.451,-0.448C0.434,-0.423 0.41,-0.403 0.377,-0.388C0.419,-0.378 0.452,-0.358 0.476,-0.327C0.499,-0.296 0.511,-0.258 0.511,-0.211C0.511,-0.149 0.488,-0.096 0.442,-0.052C0.397,-0.009 0.339,0.013 0.27,0.013C0.207,0.013 0.155,-0.006 0.113,-0.043C0.072,-0.081 0.048,-0.129 0.042,-0.189Z" style="fill:rgb(204,51,51);fill-rule:nonzero;"/>
                        </g>
                    </g>
                    <g transform="matrix(1,0,0,1,-49.7619,-41.6629)">
                        <path d="M314.539,311.874L314.539,321.773C314.539,324.458 312.359,326.638 309.674,326.638L299.944,326.638C297.258,326.638 295.078,324.458 295.078,321.773L295.078,311.874C295.078,309.189 297.258,307.009 299.944,307.009L309.674,307.009C312.359,307.009 314.539,309.189 314.539,311.874Z" style="fill:white;fill-opacity:0.89;stroke:rgb(242,13,13);stroke-opacity:0.6;stroke-width:0.55px;stroke-miterlimit:1.5;"/>
                    </g>
                    <g transform="matrix(1.57188,0,0,1.57188,107.661,-249.577)">
                        <g transform="matrix(11.4512,0,0,11.4512,88.6524,337.882)">
                            <path d="M0.066,-0L0.066,-0.716L0.154,-0.716L0.154,-0.308L0.362,-0.519L0.476,-0.519L0.278,-0.326L0.496,-0L0.388,-0L0.216,-0.265L0.154,-0.206L0.154,-0L0.066,-0Z" style="fill:rgb(204,51,51);fill-rule:nonzero;"/>
                        </g>
                        <g transform="matrix(6.99798,0,0,6.99798,94.3781,337.882)">
                            <path d="M0.503,-0.084L0.503,-0L0.03,-0C0.03,-0.021 0.033,-0.042 0.041,-0.061C0.053,-0.093 0.072,-0.125 0.098,-0.156C0.125,-0.188 0.163,-0.224 0.213,-0.265C0.291,-0.328 0.344,-0.379 0.371,-0.416C0.398,-0.454 0.412,-0.489 0.412,-0.522C0.412,-0.557 0.4,-0.586 0.375,-0.61C0.35,-0.634 0.317,-0.646 0.277,-0.646C0.235,-0.646 0.201,-0.633 0.176,-0.608C0.15,-0.583 0.138,-0.547 0.137,-0.502L0.047,-0.512C0.053,-0.579 0.076,-0.63 0.117,-0.666C0.157,-0.701 0.211,-0.719 0.279,-0.719C0.348,-0.719 0.402,-0.7 0.442,-0.662C0.482,-0.624 0.502,-0.576 0.502,-0.52C0.502,-0.491 0.497,-0.463 0.485,-0.436C0.473,-0.408 0.454,-0.379 0.427,-0.348C0.399,-0.318 0.354,-0.276 0.291,-0.222C0.238,-0.178 0.204,-0.148 0.189,-0.132C0.174,-0.116 0.162,-0.1 0.152,-0.084L0.503,-0.084Z" style="fill:rgb(204,51,51);fill-rule:nonzero;"/>
                        </g>
                    </g>
                    <g transform="matrix(1,0,0,1,-171.921,12.815)">
                        <path d="M314.539,311.874L314.539,321.773C314.539,324.458 312.359,326.638 309.674,326.638L299.944,326.638C297.258,326.638 295.078,324.458 295.078,321.773L295.078,311.874C295.078,309.189 297.258,307.009 299.944,307.009L309.674,307.009C312.359,307.009 314.539,309.189 314.539,311.874Z" style="fill:white;fill-opacity:0.89;stroke:rgb(242,13,13);stroke-opacity:0.6;stroke-width:0.55px;stroke-miterlimit:1.5;"/>
                    </g>
                    <g transform="matrix(1.57188,0,0,1.57188,-14.3699,-195.099)">
                        <g transform="matrix(11.4512,0,0,11.4512,88.6524,337.882)">
                            <path d="M0.066,-0L0.066,-0.716L0.154,-0.716L0.154,-0.308L0.362,-0.519L0.476,-0.519L0.278,-0.326L0.496,-0L0.388,-0L0.216,-0.265L0.154,-0.206L0.154,-0L0.066,-0Z" style="fill:rgb(204,51,51);fill-rule:nonzero;"/>
                        </g>
                        <g transform="matrix(6.99798,0,0,6.99798,94.3781,337.882)">
                            <path d="M0.373,-0L0.285,-0L0.285,-0.56C0.264,-0.54 0.236,-0.52 0.201,-0.5C0.167,-0.479 0.136,-0.464 0.109,-0.454L0.109,-0.539C0.158,-0.562 0.201,-0.59 0.238,-0.623C0.275,-0.656 0.301,-0.688 0.316,-0.719L0.373,-0.719L0.373,-0Z" style="fill:rgb(204,51,51);fill-rule:nonzero;"/>
                        </g>
                    </g>
                    <g transform="matrix(1,0,0,1,60.4023,-191.092)">
                        <path d="M314.539,311.874L314.539,321.773C314.539,324.458 312.359,326.638 309.674,326.638L299.944,326.638C297.258,326.638 295.078,324.458 295.078,321.773L295.078,311.874C295.078,309.189 297.258,307.009 299.944,307.009L309.674,307.009C312.359,307.009 314.539,309.189 314.539,311.874Z" style="fill:white;fill-opacity:0.89;stroke:rgb(242,13,13);stroke-opacity:0.6;stroke-width:0.55px;stroke-miterlimit:1.5;"/>
                    </g>
                    <g transform="matrix(1.57188,0,0,1.57188,217.953,-399.006)">
                        <g transform="matrix(11.4512,0,0,11.4512,88.6524,337.882)">
                            <path d="M0.066,-0L0.066,-0.716L0.154,-0.716L0.154,-0.308L0.362,-0.519L0.476,-0.519L0.278,-0.326L0.496,-0L0.388,-0L0.216,-0.265L0.154,-0.206L0.154,-0L0.066,-0Z" style="fill:rgb(204,51,51);fill-rule:nonzero;"/>
                        </g>
                        <g transform="matrix(6.99798,0,0,6.99798,94.3781,337.882)">
                            <path d="M0.323,-0L0.323,-0.171L0.013,-0.171L0.013,-0.252L0.339,-0.716L0.411,-0.716L0.411,-0.252L0.508,-0.252L0.508,-0.171L0.411,-0.171L0.411,-0L0.323,-0ZM0.323,-0.252L0.323,-0.575L0.099,-0.252L0.323,-0.252Z" style="fill:rgb(204,51,51);fill-rule:nonzero;"/>
                        </g>
                    </g>
                    <g transform="matrix(1,0,0,1,-82.9741,-79.2638)">
                        <path d="M314.539,311.874L314.539,321.773C314.539,324.458 312.359,326.638 309.674,326.638L299.944,326.638C297.258,326.638 295.078,324.458 295.078,321.773L295.078,311.874C295.078,309.189 297.258,307.009 299.944,307.009L309.674,307.009C312.359,307.009 314.539,309.189 314.539,311.874Z" style="fill:white;fill-opacity:0.89;stroke:rgb(86,165,76);stroke-opacity:0.62;stroke-width:0.55px;stroke-miterlimit:1.5;"/>
                    </g>
                    <g transform="matrix(1.57188,0,0,1.57188,74.5768,-287.178)">
                        <g transform="matrix(11.4512,0,0,11.4512,88.6524,337.882)">
                            <path d="M0.599,-0L0.013,-0L0.319,-0.677L0.599,-0ZM0.483,-0.04L0.289,-0.512L0.074,-0.04L0.483,-0.04Z" style="fill:rgb(86,165,76);fill-rule:nonzero;"/>
                        </g>
                        <g transform="matrix(6.99798,0,0,6.99798,95.6585,337.882)">
                            <path d="M0.007,-0L0.197,-0.27L0.021,-0.519L0.131,-0.519L0.211,-0.397C0.226,-0.374 0.238,-0.354 0.247,-0.339C0.261,-0.36 0.275,-0.379 0.287,-0.396L0.374,-0.519L0.479,-0.519L0.3,-0.274L0.493,-0L0.385,-0L0.278,-0.161L0.25,-0.205L0.114,-0L0.007,-0Z" style="fill:rgb(86,165,76);fill-rule:nonzero;"/>
                        </g>
                    </g>
                </g>
            </g>
        </g>
    </g>
</svg>
